<svg width="24" height="24" viewBox="0 0 24 24" fill="none" xmlns="http://www.w3.org/2000/svg">
<path fill-rule="evenodd" clip-rule="evenodd" d="M12.011 2.99991C13.0678 2.98829 14.1001 3.30858 14.8444 3.85715C15.5727 4.39394 16 5.12143 16 5.99999C16 6.55228 16.4477 6.99999 17 6.99999C17.5523 6.99999 18 6.55228 18 5.99999C18 4.37853 17.1775 3.09227 16.031 2.24719C14.9004 1.41388 13.4327 0.984163 11.989 1.00003C8.72615 1.03588 6 3.40673 6 7H7L6 7.00002V7.00008V7.00018V7.00033V7.00052V7.00075V7.00101V7.00133V7.00168V7.00207V7.0025V7.00298V7.00349V7.00405V7.00464V7.00528V7.00595V7.00667V7.00742V7.00822V7.00905V7.00993V7.01084V7.01179V7.01278V7.01382V7.01489V7.01599V7.01714V7.01833V7.01955V7.02082V7.02212V7.02346V7.02483V7.02625V7.0277V7.0292V7.03072V7.03229V7.03389V7.03554V7.03721V7.03893V7.04068V7.04247V7.0443V7.04616V7.04806V7.04999V7.05196V7.05397V7.05602V7.0581V7.06021V7.06236V7.06455V7.06677V7.06903V7.07132V7.07365V7.07602V7.07842V7.08085V7.08332V7.08582V7.08836V7.09093V7.09353V7.09617V7.09885V7.10156V7.1043V7.10708V7.10988V7.11273V7.1156V7.11851V7.12146V7.12443V7.12744V7.13048V7.13356V7.13666V7.1398V7.14298V7.14618V7.14942V7.15268V7.15599V7.15932V7.16268V7.16608V7.1695V7.17296V7.17645V7.17997V7.18353V7.18711V7.19072V7.19437V7.19804V7.20175V7.20549V7.20925V7.21305V7.21688V7.22073V7.22462V7.22854V7.23248V7.23646V7.24046V7.2445V7.24856V7.25265V7.25677V7.26093V7.2651V7.26931V7.27355V7.27781V7.28211V7.28643V7.29078V7.29515V7.29956V7.30399V7.30845V7.31294V7.31745V7.322V7.32657V7.33116V7.33579V7.34044V7.34511V7.34982V7.35455V7.35931V7.36409V7.3689V7.37373V7.3786V7.38348V7.3884V7.39333V7.3983V7.40329V7.4083V7.41334V7.41841V7.4235V7.42861V7.43375V7.43892V7.44411V7.44932V7.45456V7.45982V7.4651V7.47041V7.47575V7.48111V7.48649V7.49189V7.49732V7.50277V7.50824V7.51374V7.51926V7.5248V7.53037V7.53596V7.54157V7.5472V7.55286V7.55854V7.56424V7.56996V7.5757V7.58147V7.58726V7.59307V7.5989V7.60475V7.61062V7.61651V7.62243V7.62836V7.63432V7.6403V7.64629V7.65231V7.65835V7.66441V7.67049V7.67659V7.6827V7.68884V7.695V7.70118V7.70737V7.71359V7.71982V7.72608V7.73235V7.73864V7.74495V7.75128V7.75763V7.764V7.77038V7.77678V7.7832V7.78964V7.7961V7.80257V7.80907V7.81558V7.8221V7.82865V7.83521V7.84179V7.84838V7.85499V7.86162V7.86827V7.87493V7.88161V7.8883V7.89502V7.90174V7.90849V7.91524V7.92202V7.92881V7.93561V7.94244V7.94927V7.95612V7.96299V7.96987V7.97677V7.98368V7.99061V7.99755V8.0045V8.01147V8.01845V8.02545V8.03246V8.03949V8.04653V8.05358V8.06065V8.06772V8.07482V8.08192V8.08904V8.09617V8.10332V8.11048V8.11765V8.12483V8.13203V8.13923V8.14645V8.15368V8.16093V8.16818V8.17545V8.18273V8.19002V8.19732V8.20463V8.21196V8.21929V8.22664V8.234V8.24137V8.24874V8.25613V8.26353V8.27094V8.27836V8.28579V8.29323V8.30068V8.30814V8.31561V8.32309V8.33058V8.33808V8.34558V8.3531V8.36062V8.36816V8.3757V8.38325V8.39081V8.39838V8.40595V8.41354V8.42113V8.42873V8.43634V8.44396V8.45158V8.45921V8.46685V8.47449V8.48215V8.48981V8.49747V8.50515V8.51283V8.52052V8.52821V8.53591V8.54362V8.55133V8.55905V8.56677V8.5745V8.58224V8.58998V8.59773V8.60548V8.61324V8.621V8.62877V8.63655V8.64432V8.65211V8.65989V8.66769V8.67548V8.68328V8.69109V8.6989V8.70671V8.71453V8.72235V8.73017V8.738V8.74583V8.75367V8.7615V8.76935V8.77719V8.78504V8.79288V8.80074V8.80859V8.81645V8.82431V8.83217V8.84003V8.8479V8.85576V8.86363V8.8715V8.87938V8.88725V8.89513V8.903V8.91088V8.91876V8.92664V8.93451V8.9424V8.95028V8.95816V8.96604V8.97392V8.9818V8.98968V8.99757V9.00545V9.01333V9.02121V9.02909V9.03697V9.04485V9.05272V9.0606V9.06848V9.07635V9.08422V9.09209V9.09996V9.10783V9.1157V9.12356V9.13142V9.13928V9.14714V9.155V9.16285V9.1707V9.17855V9.18639V9.19423V9.20207V9.20991V9.21774V9.22557V9.2334V9.24122V9.24904V9.25685V9.26466V9.27247V9.28027V9.28807V9.29586V9.30365V9.31144V9.31922V9.32699V9.33476V9.34253V9.35029V9.35804V9.36579V9.37353V9.38127V9.389V9.39673V9.40445V9.41217V9.41988V9.42758V9.43527V9.44296V9.45065V9.45832V9.46599V9.47366V9.48131V9.48896V9.4966V9.50424V9.51186V9.51948V9.52709V9.53469V9.54229V9.54988V9.55746V9.56503V9.57259V9.58014V9.58769V9.59523V9.60275V9.61027V9.61778V9.62528V9.63277V9.64026V9.64773V9.65519V9.66265V9.67009V9.67752V9.68495V9.69236V9.69976V9.70716V9.71454V9.72191V9.72927V9.73662V9.74396V9.75129V9.75861V9.76591V9.77321V9.78049V9.78776V9.79502V9.80227V9.80951V9.81673V9.82394V9.83114V9.83833V9.8455V9.85267V9.85981V9.86695V9.87407V9.88119V9.88828V9.89537V9.90244V9.9095V9.91654V9.92357V9.93059V9.93759V9.94458V9.95155V9.95851V9.96546V9.97239V9.9793V9.98621V9.99309V9.99997C6 9.99998 6 9.99999 6 10H5C3.34315 10 2 11.3431 2 13V20C2 21.6569 3.34315 23 5 23H19C20.6569 23 22 21.6569 22 20V13C22 11.3431 20.6569 10 19 10H8C8 9.99999 8 9.99998 8 9.99997V9.99309V9.98621V9.9793V9.97239V9.96546V9.95851V9.95155V9.94458V9.93759V9.93059V9.92357V9.91654V9.9095V9.90244V9.89537V9.88828V9.88119V9.87407V9.86695V9.85981V9.85267V9.8455V9.83833V9.83114V9.82394V9.81673V9.80951V9.80227V9.79502V9.78776V9.78049V9.77321V9.76591V9.75861V9.75129V9.74396V9.73662V9.72927V9.72191V9.71454V9.70716V9.69976V9.69236V9.68495V9.67752V9.67009V9.66265V9.65519V9.64773V9.64026V9.63277V9.62528V9.61778V9.61027V9.60275V9.59523V9.58769V9.58014V9.57259V9.56503V9.55746V9.54988V9.54229V9.53469V9.52709V9.51948V9.51186V9.50424V9.4966V9.48896V9.48131V9.47366V9.46599V9.45832V9.45065V9.44296V9.43527V9.42758V9.41988V9.41217V9.40445V9.39673V9.389V9.38127V9.37353V9.36579V9.35804V9.35029V9.34253V9.33476V9.32699V9.31922V9.31144V9.30365V9.29586V9.28807V9.28027V9.27247V9.26466V9.25685V9.24904V9.24122V9.2334V9.22557V9.21774V9.20991V9.20207V9.19423V9.18639V9.17855V9.1707V9.16285V9.155V9.14714V9.13928V9.13142V9.12356V9.1157V9.10783V9.09996V9.09209V9.08422V9.07635V9.06848V9.0606V9.05272V9.04485V9.03697V9.02909V9.02121V9.01333V9.00545V8.99757V8.98968V8.9818V8.97392V8.96604V8.95816V8.95028V8.9424V8.93451V8.92664V8.91876V8.91088V8.903V8.89513V8.88725V8.87938V8.8715V8.86363V8.85576V8.8479V8.84003V8.83217V8.82431V8.81645V8.80859V8.80074V8.79288V8.78504V8.77719V8.76935V8.7615V8.75367V8.74583V8.738V8.73017V8.72235V8.71453V8.70671V8.6989V8.69109V8.68328V8.67548V8.66769V8.65989V8.65211V8.64432V8.63655V8.62877V8.621V8.61324V8.60548V8.59773V8.58998V8.58224V8.5745V8.56677V8.55905V8.55133V8.54362V8.53591V8.52821V8.52052V8.51283V8.50515V8.49747V8.48981V8.48215V8.47449V8.46685V8.45921V8.45158V8.44396V8.43634V8.42873V8.42113V8.41354V8.40595V8.39838V8.39081V8.38325V8.3757V8.36816V8.36062V8.3531V8.34558V8.33808V8.33058V8.32309V8.31561V8.30814V8.30068V8.29323V8.28579V8.27836V8.27094V8.26353V8.25613V8.24874V8.24137V8.234V8.22664V8.21929V8.21196V8.20463V8.19732V8.19002V8.18273V8.17545V8.16818V8.16093V8.15368V8.14645V8.13923V8.13203V8.12483V8.11765V8.11048V8.10332V8.09617V8.08904V8.08192V8.07482V8.06772V8.06065V8.05358V8.04653V8.03949V8.03246V8.02545V8.01845V8.01147V8.0045V7.99755V7.99061V7.98368V7.97677V7.96987V7.96299V7.95612V7.94927V7.94244V7.93561V7.92881V7.92202V7.91524V7.90849V7.90174V7.89502V7.8883V7.88161V7.87493V7.86827V7.86162V7.85499V7.84838V7.84179V7.83521V7.82865V7.8221V7.81558V7.80907V7.80257V7.7961V7.78964V7.7832V7.77678V7.77038V7.764V7.75763V7.75128V7.74495V7.73864V7.73235V7.72608V7.71982V7.71359V7.70737V7.70118V7.695V7.68884V7.6827V7.67659V7.67049V7.66441V7.65835V7.65231V7.64629V7.6403V7.63432V7.62836V7.62243V7.61651V7.61062V7.60475V7.5989V7.59307V7.58726V7.58147V7.5757V7.56996V7.56424V7.55854V7.55286V7.5472V7.54157V7.53596V7.53037V7.5248V7.51926V7.51374V7.50824V7.50277V7.49732V7.49189V7.48649V7.48111V7.47575V7.47041V7.4651V7.45982V7.45456V7.44932V7.44411V7.43892V7.43375V7.42861V7.4235V7.41841V7.41334V7.4083V7.40329V7.3983V7.39333V7.3884V7.38348V7.3786V7.37373V7.3689V7.36409V7.35931V7.35455V7.34982V7.34511V7.34044V7.33579V7.33116V7.32657V7.322V7.31745V7.31294V7.30845V7.30399V7.29956V7.29515V7.29078V7.28643V7.28211V7.27781V7.27355V7.26931V7.2651V7.26093V7.25677V7.25265V7.24856V7.2445V7.24046V7.23646V7.23248V7.22854V7.22462V7.22073V7.21688V7.21305V7.20925V7.20549V7.20175V7.19804V7.19437V7.19072V7.18711V7.18353V7.17997V7.17645V7.17296V7.1695V7.16608V7.16268V7.15932V7.15599V7.15268V7.14942V7.14618V7.14298V7.1398V7.13666V7.13356V7.13048V7.12744V7.12443V7.12146V7.11851V7.1156V7.11273V7.10988V7.10708V7.1043V7.10156V7.09885V7.09617V7.09353V7.09093V7.08836V7.08582V7.08332V7.08085V7.07842V7.07602V7.07365V7.07132V7.06903V7.06677V7.06455V7.06236V7.06021V7.0581V7.05602V7.05397V7.05196V7.04999V7.04806V7.04616V7.0443V7.04247V7.04068V7.03893V7.03721V7.03554V7.03389V7.03229V7.03072V7.0292V7.0277V7.02625V7.02483V7.02346V7.02212V7.02082V7.01955V7.01833V7.01714V7.01599V7.01489V7.01382V7.01278V7.01179V7.01084V7.00993V7.00905V7.00822V7.00742V7.00667V7.00595V7.00528V7.00464V7.00405V7.00349V7.00298V7.0025V7.00207V7.00168V7.00133V7.00101V7.00075V7.00052V7.00033V7.00018V7.00008V7.00002L7 7H8C8 4.59321 9.75132 3.02474 12.011 2.99991ZM4 13C4 12.4477 4.44772 12 5 12H19C19.5523 12 20 12.4477 20 13V20C20 20.5523 19.5523 21 19 21H5C4.44772 21 4 20.5523 4 20V13Z" fill="#516173"/>
</svg>
