<svg width="24" height="24" viewBox="0 0 24 24" fill="none" xmlns="http://www.w3.org/2000/svg">
<path fill-rule="evenodd" clip-rule="evenodd" d="M12 2.00102C6.47715 2.00102 2 6.47817 2 12.001C2 17.5239 6.47715 22.001 12 22.001C17.5228 22.001 22 17.5239 22 12.001C22 6.47817 17.5228 2.00102 12 2.00102ZM0 12.001C0 5.37361 5.37258 0.00102234 12 0.00102234C18.6274 0.00102234 24 5.37361 24 12.001C24 18.6284 18.6274 24.001 12 24.001C5.37258 24.001 0 18.6284 0 12.001ZM12.4072 7.04462C10.8545 6.77337 9.44433 7.6218 8.9402 9.01328C8.75207 9.53253 8.17862 9.80096 7.65936 9.61284C7.14011 9.42471 6.87168 8.85126 7.0598 8.332C7.89624 6.02335 10.2476 4.63706 12.7514 5.07446C13.9024 5.27552 14.9799 5.74128 15.7729 6.58824C16.5789 7.44896 17 8.60644 17 10.005C17 11.8822 15.5668 13.1421 14.4851 13.8422C13.9101 14.2144 13.3425 14.4892 12.9228 14.6703C12.7115 14.7615 12.5341 14.8305 12.4072 14.8774C12.3436 14.9009 12.2925 14.919 12.2559 14.9316L12.212 14.9466L12.1987 14.951L12.1942 14.9525L12.1926 14.953L12.1919 14.9532C12.1916 14.9533 12.1913 14.9534 11.8962 14.0416L12.1913 14.9534C11.6658 15.1235 11.102 14.8354 10.9319 14.3099C10.762 13.7849 11.0495 13.2216 11.5741 13.051L11.5749 13.0507L11.5783 13.0496L11.6033 13.0411C11.627 13.0329 11.6643 13.0198 11.7133 13.0016C11.8116 12.9653 11.9557 12.9094 12.1304 12.834C12.4825 12.6821 12.9441 12.4573 13.3983 12.1633C14.3749 11.5311 15 10.7925 15 10.005C15 9.02455 14.7152 8.38477 14.313 7.95524C13.8979 7.51196 13.2651 7.19448 12.4072 7.04462ZM12 17.002C11.4477 17.002 11 17.4497 11 18.002C11 18.5543 11.4477 19.002 12 19.002H12.01C12.5623 19.002 13.01 18.5543 13.01 18.002C13.01 17.4497 12.5623 17.002 12.01 17.002H12Z" fill="#516173"/>
</svg>
