<svg width="24" height="24" viewBox="0 0 24 24" fill="none" xmlns="http://www.w3.org/2000/svg">
<path fill-rule="evenodd" clip-rule="evenodd" d="M8.08243 0.0485101C12.1719 -0.367914 16.1075 2.15802 17.4782 6.00192H18.0001H18.0012C20.811 6.00523 23.2933 8.02526 23.8675 10.7757C24.4418 13.5262 22.975 16.3707 20.4012 17.4979C19.8953 17.7195 19.3056 17.489 19.0841 16.9831C18.8625 16.4772 19.093 15.8875 19.5989 15.6659C21.306 14.9183 22.2906 13.0088 21.9097 11.1845C21.5289 9.3603 19.8627 8.0043 17.9993 8.00192L17.9989 8.00192L16.74 8.00192C16.2841 8.00192 15.8858 7.69346 15.7718 7.25196C14.9197 3.9521 11.6555 1.69502 8.28504 2.03822C4.91458 2.38143 2.17235 5.25012 2.00282 8.65401C1.89198 10.8796 2.88352 13.0797 4.62431 14.4707C5.05577 14.8155 5.12604 15.4447 4.78126 15.8762C4.43649 16.3076 3.80724 16.3779 3.37579 16.0331C1.13271 14.2407 -0.137524 11.4222 0.00529958 8.55453C0.224165 4.16 3.73249 0.491452 8.08243 0.0485101ZM8 15.002C7.44772 15.002 7.00001 15.4497 7.00001 16.002C7.00001 16.5543 7.44772 17.002 8 17.002H8.01C8.56229 17.002 9.01 16.5543 9.01 16.002C9.01 15.4497 8.56229 15.002 8.01 15.002H8ZM7.00001 20.002C7.00001 19.4497 7.44772 19.002 8 19.002H8.01C8.56229 19.002 9.01 19.4497 9.01 20.002C9.01 20.5543 8.56229 21.002 8.01 21.002H8C7.44772 21.002 7.00001 20.5543 7.00001 20.002ZM12 17.002C11.4477 17.002 11 17.4497 11 18.002C11 18.5543 11.4477 19.002 12 19.002H12.01C12.5623 19.002 13.01 18.5543 13.01 18.002C13.01 17.4497 12.5623 17.002 12.01 17.002H12ZM11 22.002C11 21.4497 11.4477 21.002 12 21.002H12.01C12.5623 21.002 13.01 21.4497 13.01 22.002C13.01 22.5543 12.5623 23.002 12.01 23.002H12C11.4477 23.002 11 22.5543 11 22.002ZM12 13.002C11.4477 13.002 11 13.4498 11 14.002C11 14.5543 11.4477 15.002 12 15.002H12.01C12.5623 15.002 13.01 14.5543 13.01 14.002C13.01 13.4498 12.5623 13.002 12.01 13.002H12ZM15 16.002C15 15.4497 15.4477 15.002 16 15.002H16.01C16.5623 15.002 17.01 15.4497 17.01 16.002C17.01 16.5543 16.5623 17.002 16.01 17.002H16C15.4477 17.002 15 16.5543 15 16.002ZM16 19.002C15.4477 19.002 15 19.4497 15 20.002C15 20.5543 15.4477 21.002 16 21.002H16.01C16.5623 21.002 17.01 20.5543 17.01 20.002C17.01 19.4497 16.5623 19.002 16.01 19.002H16Z" fill="#0085F0"/>
</svg>
