<svg width="121" height="32" viewBox="0 0 121 32" fill="none" xmlns="http://www.w3.org/2000/svg">
<path d="M43.4268 11.6208H39.4558V9.70175H49.6968V11.6208H45.7068V23.0018H43.4268V11.6208Z" fill="white"/>
<path d="M51.6408 9.70175H56.3148C57.9994 9.70175 59.2598 10.0944 60.0958 10.8798C60.9444 11.6524 61.3688 12.7038 61.3688 14.0338C61.3688 15.3764 60.9444 16.4404 60.0958 17.2258C59.2598 17.9984 57.9994 18.3848 56.3148 18.3848H53.9018V23.0018H51.6408V9.70175ZM56.3148 16.4658C57.2901 16.4658 57.9931 16.2631 58.4238 15.8578C58.8671 15.4398 59.0888 14.8318 59.0888 14.0338C59.0888 13.2484 58.8671 12.6531 58.4238 12.2478C57.9931 11.8298 57.2901 11.6208 56.3148 11.6208H53.9018V16.4658H56.3148Z" fill="white"/>
<path d="M63.5091 12.9318H65.4661V14.5468C65.6941 14.0401 66.0551 13.6221 66.5491 13.2928C67.0557 12.9508 67.6511 12.7798 68.3351 12.7798C68.4744 12.7798 68.5948 12.7861 68.6961 12.7988C68.8101 12.8114 68.9114 12.8241 69.0001 12.8368C69.1014 12.8494 69.1901 12.8621 69.2661 12.8748V14.8508C69.1268 14.8381 68.9874 14.8191 68.8481 14.7938C68.7087 14.7684 68.5568 14.7494 68.3921 14.7368C68.2274 14.7241 68.0438 14.7178 67.8411 14.7178C67.1571 14.7178 66.6187 14.9141 66.2261 15.3068C65.8461 15.6868 65.6561 16.2188 65.6561 16.9028V23.0018H63.5091V12.9318Z" fill="white"/>
<path d="M74.4889 23.1538C73.1842 23.1538 72.1455 22.7611 71.3729 21.9758C70.6129 21.1778 70.2329 20.0314 70.2329 18.5368V17.1878C70.2329 16.5038 70.3279 15.8894 70.5179 15.3448C70.7205 14.8001 71.0055 14.3378 71.3729 13.9578C71.7529 13.5778 72.2025 13.2864 72.7219 13.0838C73.2539 12.8811 73.8429 12.7798 74.4889 12.7798C75.1349 12.7798 75.7175 12.8811 76.2369 13.0838C76.7689 13.2864 77.2185 13.5778 77.5859 13.9578C77.9659 14.3378 78.2509 14.8001 78.4409 15.3448C78.6435 15.8894 78.7449 16.5038 78.7449 17.1878V18.5368C78.7449 20.0314 78.3585 21.1778 77.5859 21.9758C76.8259 22.7611 75.7935 23.1538 74.4889 23.1538ZM74.4889 21.3108C75.1475 21.3108 75.6605 21.0954 76.0279 20.6648C76.4079 20.2341 76.5979 19.5248 76.5979 18.5368V17.1878C76.5979 16.3138 76.4079 15.6678 76.0279 15.2498C75.6605 14.8318 75.1475 14.6228 74.4889 14.6228C73.8302 14.6228 73.3109 14.8318 72.9309 15.2498C72.5635 15.6678 72.3799 16.3138 72.3799 17.1878V18.5368C72.3799 19.5248 72.5635 20.2341 72.9309 20.6648C73.3109 21.0954 73.8302 21.3108 74.4889 21.3108Z" fill="white"/>
<path d="M79.6956 24.9968C79.9743 24.9968 80.2086 24.9651 80.3986 24.9018C80.6013 24.8511 80.7596 24.7498 80.8736 24.5978C81.0003 24.4458 81.0889 24.2431 81.1396 23.9898C81.1903 23.7364 81.2156 23.4071 81.2156 23.0018V12.9318H83.3436V23.0018C83.3436 23.7491 83.2866 24.3634 83.1726 24.8448C83.0586 25.3388 82.8623 25.7314 82.5836 26.0228C82.3049 26.3141 81.9313 26.5168 81.4626 26.6308C80.9939 26.7448 80.4049 26.8018 79.6956 26.8018V24.9968ZM82.2796 12.0008C81.9123 12.0008 81.5956 11.8678 81.3296 11.6018C81.0636 11.3358 80.9306 11.0191 80.9306 10.6518C80.9306 10.2844 81.0636 9.96775 81.3296 9.70175C81.5956 9.43575 81.9123 9.30275 82.2796 9.30275C82.6469 9.30275 82.9636 9.43575 83.2296 9.70175C83.4956 9.96775 83.6286 10.2844 83.6286 10.6518C83.6286 11.0191 83.4956 11.3358 83.2296 11.6018C82.9636 11.8678 82.6469 12.0008 82.2796 12.0008Z" fill="white"/>
<path d="M89.9798 23.1538C89.3465 23.1538 88.7765 23.0524 88.2698 22.8498C87.7631 22.6471 87.3261 22.3494 86.9588 21.9568C86.5915 21.5641 86.3065 21.0828 86.1038 20.5128C85.9138 19.9428 85.8188 19.2841 85.8188 18.5368V17.1878C85.8188 15.7691 86.1798 14.6798 86.9018 13.9198C87.6365 13.1598 88.6308 12.7798 89.8848 12.7798C91.1388 12.7798 92.1268 13.1598 92.8488 13.9198C93.5835 14.6798 93.9508 15.7818 93.9508 17.2258V18.5748H87.9658C87.9785 19.6134 88.1621 20.3418 88.5168 20.7598C88.8715 21.1778 89.3591 21.3868 89.9798 21.3868C90.4991 21.3868 90.8855 21.2601 91.1388 21.0068C91.4048 20.7534 91.5695 20.4621 91.6328 20.1328H93.7608C93.5835 21.0828 93.1781 21.8238 92.5448 22.3558C91.9241 22.8878 91.0691 23.1538 89.9798 23.1538ZM89.9228 14.5468C89.3148 14.5468 88.8398 14.7304 88.4978 15.0978C88.1685 15.4651 87.9911 16.0921 87.9658 16.9788H91.9368C91.9115 16.0921 91.7278 15.4651 91.3858 15.0978C91.0438 14.7304 90.5561 14.5468 89.9228 14.5468Z" fill="white"/>
<path d="M99.8509 23.1538C99.2176 23.1538 98.6476 23.0524 98.1409 22.8498C97.6342 22.6471 97.1972 22.3494 96.8299 21.9568C96.4626 21.5641 96.1776 21.0828 95.9749 20.5128C95.7849 19.9428 95.6899 19.2841 95.6899 18.5368V17.1878C95.6899 16.5038 95.7849 15.8894 95.9749 15.3448C96.1776 14.8001 96.4626 14.3378 96.8299 13.9578C97.1972 13.5778 97.6342 13.2864 98.1409 13.0838C98.6476 12.8811 99.2176 12.7798 99.8509 12.7798C101.029 12.7798 101.966 13.0838 102.663 13.6918C103.36 14.2998 103.746 15.0914 103.822 16.0668H101.656C101.58 15.6741 101.396 15.3384 101.105 15.0598C100.826 14.7684 100.408 14.6228 99.8509 14.6228C99.2429 14.6228 98.7552 14.8318 98.3879 15.2498C98.0206 15.6678 97.8369 16.3138 97.8369 17.1878V18.5368C97.8369 19.5248 98.0206 20.2341 98.3879 20.6648C98.7552 21.0954 99.2429 21.3108 99.8509 21.3108C100.408 21.3108 100.826 21.1651 101.105 20.8738C101.396 20.5824 101.58 20.2468 101.656 19.8668H103.822C103.67 20.8928 103.265 21.6971 102.606 22.2798C101.947 22.8624 101.029 23.1538 99.8509 23.1538Z" fill="white"/>
<path d="M109.707 23.0018C109.099 23.0018 108.586 22.9448 108.168 22.8308C107.763 22.7168 107.427 22.5331 107.161 22.2798C106.908 22.0138 106.724 21.6718 106.61 21.2538C106.496 20.8231 106.439 20.3038 106.439 19.6958V14.7368H105.052V12.9318H106.439V10.6518H108.586V12.9318H110.6V14.7368H108.586V19.6958C108.586 20.2911 108.681 20.6901 108.871 20.8928C109.061 21.0954 109.391 21.1968 109.859 21.1968H110.6V23.0018H109.707Z" fill="white"/>
<path d="M116.098 23.1538C115.414 23.1538 114.825 23.0778 114.331 22.9258C113.85 22.7738 113.444 22.5648 113.115 22.2988C112.798 22.0328 112.558 21.7161 112.393 21.3488C112.241 20.9814 112.152 20.5761 112.127 20.1328H114.255C114.306 20.5128 114.458 20.8168 114.711 21.0448C114.964 21.2728 115.427 21.3868 116.098 21.3868C116.807 21.3868 117.295 21.2791 117.561 21.0638C117.84 20.8484 117.979 20.5698 117.979 20.2278C117.979 20.0631 117.954 19.9111 117.903 19.7718C117.865 19.6324 117.77 19.5058 117.618 19.3918C117.479 19.2778 117.27 19.1701 116.991 19.0688C116.712 18.9674 116.339 18.8724 115.87 18.7838C114.667 18.5431 113.78 18.1948 113.21 17.7388C112.653 17.2828 112.374 16.6178 112.374 15.7438C112.374 14.8698 112.678 14.1604 113.286 13.6158C113.894 13.0584 114.831 12.7798 116.098 12.7798C117.352 12.7798 118.27 13.0584 118.853 13.6158C119.448 14.1604 119.771 14.8698 119.822 15.7438H117.713C117.662 15.3638 117.523 15.0724 117.295 14.8698C117.08 14.6544 116.681 14.5468 116.098 14.5468C115.49 14.5468 115.066 14.6481 114.825 14.8508C114.584 15.0408 114.464 15.3131 114.464 15.6678C114.464 15.8198 114.489 15.9654 114.54 16.1048C114.591 16.2314 114.686 16.3518 114.825 16.4658C114.964 16.5671 115.161 16.6621 115.414 16.7508C115.68 16.8394 116.016 16.9218 116.421 16.9978C117.08 17.1118 117.637 17.2574 118.093 17.4348C118.562 17.5994 118.942 17.8084 119.233 18.0618C119.524 18.3024 119.733 18.5938 119.86 18.9358C119.999 19.2778 120.069 19.6768 120.069 20.1328C120.069 21.0194 119.746 21.7478 119.1 22.3178C118.467 22.8751 117.466 23.1538 116.098 23.1538Z" fill="white"/>
<path fill-rule="evenodd" clip-rule="evenodd" d="M30.2088 23.3646C31.3533 21.1606 32 18.6566 32 16.0015C32 13.0001 31.1736 10.1917 29.7358 7.79146C29.7148 7.86669 29.6931 7.94175 29.6706 8.01655C29.354 9.07181 28.8484 10.2431 28.0202 11.172C29.0734 12.8752 30.3158 15.5608 30.3158 19.4465C30.3158 19.9931 30.0508 20.5032 29.6093 20.8178C29.8798 21.5658 30.0903 22.4019 30.2088 23.3646ZM27.8949 26.7027C27.8271 26.6697 27.7611 26.632 27.6973 26.5894L26.8001 25.9913C26.3826 27.3388 25.4996 28.6376 24.1683 29.7623C25.5609 28.9339 26.817 27.9001 27.8949 26.7027ZM23.217 30.2852C22.8662 30.3546 22.4953 30.312 22.1604 30.1511C21.5769 29.8706 21.2057 29.2805 21.2057 28.6331C21.2057 28.3629 21.1967 28.1026 21.1799 27.8521C21.166 27.8714 21.1519 27.8908 21.1376 27.9101C20.2093 29.169 18.5841 30.3173 16 30.3173C13.4159 30.3173 11.7906 29.169 10.8624 27.9101C10.8481 27.8908 10.834 27.8714 10.8201 27.8521C10.8033 28.1026 10.7943 28.3629 10.7943 28.6331C10.7943 29.2805 10.4232 29.8706 9.83963 30.1511C9.50469 30.312 9.13379 30.3546 8.78297 30.2852C10.9513 31.383 13.4034 32.0015 16 32.0015C18.5966 32.0015 21.0487 31.383 23.217 30.2852ZM7.83171 29.7623C6.50042 28.6376 5.6174 27.3388 5.19989 25.9913L4.30265 26.5894C4.23888 26.632 4.17286 26.6697 4.10509 26.7027C5.18301 27.9001 6.43914 28.9339 7.83171 29.7623ZM1.79117 23.3646C0.646698 21.1606 0 18.6566 0 16.0015C0 13.0001 0.826436 10.1917 2.26416 7.79146C2.28522 7.8667 2.30696 7.94175 2.3294 8.01656C2.64598 9.07182 3.15159 10.2431 3.97986 11.172C2.92658 12.8752 1.68419 15.5608 1.68421 19.4465C1.68421 19.9931 1.94923 20.5032 2.39064 20.8178C2.1202 21.5658 1.90965 22.4018 1.79117 23.3646ZM7.24225 2.60896L10.8 3.50519L10.855 3.49077C12.367 3.09897 14.1832 3.02685 16 3.79119C17.8168 3.02685 19.633 3.09897 21.145 3.49077L21.2 3.50519L24.7577 2.60895C22.2416 0.960262 19.2328 0.00150013 16 0.00150013C12.7672 0.00150013 9.75835 0.960263 7.24225 2.60896Z" fill="#1F8EFA"/>
<path d="M3.1096 3.03781C3.21197 2.95803 3.34542 2.92992 3.47128 2.96162L10.8201 4.81287C10.9357 4.77753 11.0531 4.74432 11.1719 4.71353C12.6277 4.33628 14.3383 4.31546 16 5.18659C17.6617 4.31546 19.3723 4.33628 20.8281 4.71353C20.9469 4.74432 21.0643 4.77753 21.1799 4.81287L28.5287 2.96162C28.6545 2.92992 28.788 2.95803 28.8904 3.03781C28.9927 3.11759 29.0526 3.24013 29.0526 3.36992C29.0526 4.54621 28.9063 6.16816 28.4607 7.65359C28.0697 8.95711 27.4239 10.235 26.3681 10.9627C27.3942 12.4301 29.0526 15.1169 29.0526 19.4465C29.0526 19.5924 28.9771 19.7279 28.8529 19.8046C28.7288 19.8814 28.5738 19.8883 28.4433 19.8231L27.5148 19.3588C28.3579 20.781 29.0526 22.4764 29.0526 25.1881C29.0526 25.3434 28.9672 25.4861 28.8303 25.5593C28.6933 25.6326 28.5272 25.6246 28.398 25.5384L25.8003 23.8066C25.9389 25.4981 25.1329 27.3779 23.153 28.9619C23.0266 29.063 22.8534 29.0827 22.7076 29.0126C22.5617 28.9425 22.4689 28.7949 22.4689 28.6331C22.4689 26.9471 22.1497 25.5862 21.7563 24.5485C21.5373 24.898 21.2521 25.1956 20.9281 25.4364C20.9028 25.5425 20.8627 25.6899 20.8017 25.8649C20.6789 26.2172 20.4694 26.688 20.1209 27.1605C19.4125 28.1212 18.1531 29.0541 16 29.0541C13.8469 29.0541 12.5874 28.1212 11.879 27.1605C11.5306 26.688 11.3211 26.2172 11.1983 25.8649C11.1373 25.6899 11.0972 25.5425 11.0719 25.4364C10.7479 25.1956 10.4627 24.898 10.2437 24.5485C9.85033 25.5862 9.53111 26.9471 9.53111 28.6331C9.53111 28.7949 9.43833 28.9425 9.29245 29.0126C9.14657 29.0827 8.97341 29.063 8.84702 28.9619C6.86711 27.3779 6.06108 25.4981 6.19974 23.8066L3.60198 25.5384C3.47278 25.6246 3.30665 25.6326 3.16974 25.5593C3.03284 25.4861 2.94737 25.3434 2.94737 25.1881C2.94737 22.4764 3.64203 20.781 4.48523 19.3588L3.55672 19.8231C3.4262 19.8883 3.27119 19.8814 3.14706 19.8046C3.02293 19.7279 2.94737 19.5924 2.94737 19.4465C2.94735 15.1169 4.60579 12.4301 5.63191 10.9627C4.57614 10.235 3.93035 8.95712 3.53929 7.65359C3.09366 6.16816 2.94737 4.54622 2.94737 3.36992C2.94737 3.24013 3.00723 3.1176 3.1096 3.03781Z" fill="url(#paint0_linear_4201_2407)"/>
<path d="M10.8325 5.2502L3.36842 3.36992C3.36842 5.66657 3.94257 9.68571 6.23925 10.834C5.2823 12.1737 3.3684 14.8532 3.36842 19.4465L5.66507 18.2981C4.51674 20.0206 3.36842 21.7431 3.36842 25.1881L6.8134 22.8915C6.23923 24.6139 6.8134 26.7958 9.11005 28.6331C9.11005 26.3364 9.6842 24.6139 10.2584 23.4656C10.4063 24.2054 10.8593 24.7926 11.4502 25.1881M16 22.8915C16 22.8915 16 21.0541 13.7033 20.5948V17.1498L10.2584 14.8532M16 22.8915C16 22.8915 16 21.0541 18.2966 20.5948V17.1498L21.7416 14.8532M16 22.8915C16 25.8749 18.8474 26.3273 20.5498 25.1881M16 22.8915C16 25.8749 13.1525 26.3273 11.4502 25.1881M7.96173 6.8149C9.30144 5.66657 12.7847 3.82925 16 5.66657C19.2153 3.82925 22.6986 5.66657 24.0383 6.8149M21.1675 5.2502L28.6315 3.36992C28.6316 5.66657 28.0575 9.68571 25.7608 10.834C26.7177 12.1737 28.6316 14.8532 28.6316 19.4465L26.3349 18.2981C27.4832 20.0206 28.6315 21.7431 28.6316 25.1881L25.1866 22.8915C25.7608 24.6139 25.1866 26.7958 22.8899 28.6331C22.8899 26.3364 22.3158 24.6139 21.7416 23.4656C21.5937 24.2054 21.1407 24.7926 20.5498 25.1881M20.5498 25.1881C20.5498 25.1881 20.0191 28.6331 16 28.6331C11.9809 28.6331 11.4502 25.1881 11.4502 25.1881M19.445 10.8605C18.654 10.5649 17.4795 10.2599 16 10.2599C14.5205 10.2599 13.3459 10.5649 12.555 10.8605" stroke="#1F8EFA" stroke-linecap="round" stroke-linejoin="round"/>
<defs>
<linearGradient id="paint0_linear_4201_2407" x1="16" y1="2.94855" x2="16" y2="29.0538" gradientUnits="userSpaceOnUse">
<stop stop-color="#EFF3F6"/>
<stop offset="1" stop-color="#DFE3E9"/>
</linearGradient>
</defs>
</svg>
